<?xml version="1.0" encoding="UTF-8"?>
<svg width="48px" height="48px" viewBox="0 0 48 48" version="1.1" xmlns="http://www.w3.org/2000/svg" xmlns:xlink="http://www.w3.org/1999/xlink">
    <!-- Generator: Sketch 48.2 (47327) - http://www.bohemiancoding.com/sketch -->
    <title>ig</title>
    <desc>Created with Sketch.</desc>
    <defs></defs>
    <g id="dr-bob-tales-home" stroke="none" stroke-width="1" fill="none" fill-rule="evenodd" transform="translate(-1197.000000, -70.000000)">
        <g id="ig" transform="translate(1197.000000, 70.000000)">
            <path d="M0,24 C0,10.7448 10.7456,0 24,0 C37.2544,0 48,10.7448 48,24 C48,37.2544 37.2544,48 24,48 C10.7456,48 0,37.2544 0,24 Z" id="Shape" fill="#FFD304"></path>
            <g id="Group-2" transform="translate(9.000000, 9.000000)" fill="#FFFFFF">
                <path d="M21.52813,29.9545455 L8.19156695,29.9545455 C3.84607197,29.9545455 0.310606061,26.4194433 0.310606061,22.0735846 L0.310606061,8.7370215 C0.310606061,4.39116278 3.84607197,0.856060606 8.19156695,0.856060606 L21.52813,0.856060606 C25.8739887,0.856060606 29.4090909,4.39116278 29.4090909,8.7370215 L29.4090909,22.0739483 C29.4090909,26.4194433 25.8739887,29.9545455 21.52813,29.9545455 L21.52813,29.9545455 Z M8.2494859,3.38636364 C5.26719665,3.38636364 2.84090909,5.8126148 2.84090909,8.79485932 L2.84090909,22.0157467 C2.84090909,24.9979913 5.26719665,27.4242424 8.2494859,27.4242424 L21.4702111,27.4242424 C24.4525003,27.4242424 26.8787879,24.9979913 26.8787879,22.0157467 L26.8787879,8.79485932 C26.8787879,5.8126148 24.4525003,3.38636364 21.4702111,3.38636364 L8.2494859,3.38636364 L8.2494859,3.38636364 Z" id="Shape"></path>
                <path d="M14.8598485,22.3636364 C11.0230235,22.3636364 7.90151515,19.2417801 7.90151515,15.405303 C7.90151515,11.5681301 11.0230235,8.4469697 14.8598485,8.4469697 C18.6966735,8.4469697 21.8181818,11.5681301 21.8181818,15.405303 C21.8181818,19.2417801 18.6966735,22.3636364 14.8598485,22.3636364 L14.8598485,22.3636364 Z M14.8598485,10.9772727 C12.4181715,10.9772727 10.4318182,12.9636261 10.4318182,15.405303 C10.4318182,17.8473121 12.4181715,19.8333333 14.8598485,19.8333333 C17.3015254,19.8333333 19.2878788,17.8473121 19.2878788,15.405303 C19.2878788,12.9636261 17.3018575,10.9772727 14.8598485,10.9772727 L14.8598485,10.9772727 Z" id="Shape"></path>
                <circle id="Oval" cx="22.4507576" cy="7.81439394" r="1.89772727"></circle>
            </g>
        </g>
    </g>
</svg>